{"title":"BBC.Earth.Flight.5of6.HDTV.720p.Legendado.PT-BR","uid":9084568,"size":1612603700,"categoryP":"video","categoryS":"hd___tv_shows","magnet":"?xt=urn:btih:e198c3731f51484be336a1682132b530242e763e&amp;dn=BBC.Earth.Flight.5of6.HDTV.720p.Legendado.PT-BR&amp;tr=udp%3A%2F%2Ftracker.openbittorrent.com%3A80&amp;tr=udp%3A%2F%2Fopen.demonii.com%3A1337&amp;tr=udp%3A%2F%2Ftracker.coppersurfer.tk%3A6969&amp;tr=udp%3A%2F%2Fexodus.desync.com%3A6969","seeders":1,"leechers":1,"uploader":null,"files":1,"time":1382468974,"description":"Episode 1: http://thepiratebay.se/torrent/9077175\nEpisode 2: http://thepiratebay.se/torrent/9079979\nEpisode 3: http://thepiratebay.se/torrent/9079988/\nEpisode 4: http://thepiratebay.se/torrent/9084560\n\n+++++++++++++++++++++++++++++++++++++++++++++++++\n  &lt;a href=&quot;\nhttp://www.imdb.com/title/tt2346091/&quot; rel=&quot;nofollow&quot; target=&quot;_NEW&quot;&gt;\nhttp://www.imdb.com/title/tt2346091/&lt;/a&gt;\n\n\nAudio: English\nSubtitles/Legendas: Portugues (MKV track)\n\nVideo\nID                             : 1\nFormat                         : AVC\nFormat/Info                    : Advanced Video Codec\nFormat profile                 : &lt;a class=&quot;__cf_email__&quot; href=&quot;/cdn-cgi/l/email-protection&quot; data-cfemail=&quot;82caebe5eac2ceb1acb3&quot;&gt;[email&amp;#160;protected]&lt;/a&gt;&lt;script cf-hash='f9e31' type=&quot;text/javascript&quot;&gt;\n/* &lt;![CDATA[ */!function(){try{var t=&quot;currentScript&quot;in document?document.currentScript:function(){for(var t=document.getElementsByTagName(&quot;script&quot;),e=t.length;e--;)if(t[e].getAttribute(&quot;cf-hash&quot;))return t[e]}();if(t&amp;&amp;t.previousSibling){var e,r,n,i,c=t.previousSibling,a=c.getAttribute(&quot;data-cfemail&quot;);if(a){for(e=&quot;&quot;,r=parseInt(a.substr(0,2),16),n=2;a.length-n;n+=2)i=parseInt(a.substr(n,2),16)^r,e+=String.fromCharCode(i);e=document.createTextNode(e),c.parentNode.replaceChild(e,c)}}}catch(u){}}();/* ]]&gt; */&lt;/script&gt;\nFormat settings, CABAC         : Yes\nFormat settings, ReFrames      : 4 frames\nCodec ID                       : V_MPEG4/ISO/AVC\nDuration                       : 51mn 53s\nBit rate                       : 3 750 Kbps\nWidth                          : 1 280 pixels\nHeight                         : 720 pixels\nDisplay aspect ratio           : 16:9\nFrame rate mode                : Constant\nFrame rate                     : 30.000 fps\nColor space                    : YUV\nChroma subsampling             : 4:2:0\nBit depth                      : 8 bits\nScan type                      : Progressive\nBits/(Pixel*Frame)             : 0.136\nStream size                    : 1.33 GiB (89%)\nWriting library                : x264 core 129 r2245 bc13772\nLanguage                       : English\nDefault                        : Yes\nForced                         : No\n\nAudio\nID                             : 2\nFormat                         : AC-3\nFormat/Info                    : Audio Coding 3\nMode extension                 : CM (complete main)\nFormat settings, Endianness    : Big\nCodec ID                       : A_AC3\nDuration                       : 51mn 53s\nBit rate mode                  : Constant\nBit rate                       : 384 Kbps\nChannel(s)                     : 2 channels\nChannel positions              : Front: L R\nSampling rate                  : 48.0 KHz\nBit depth                      : 16 bits\nCompression mode               : Lossy\nDelay relative to video        : 25ms\nStream size                    : 143 MiB (9%)\nLanguage                       : English\nDefault                        : Yes\nForced                         : No\t","torrent":{"xt":"urn:btih:e198c3731f51484be336a1682132b530242e763e","amp;dn":"BBC.Earth.Flight.5of6.HDTV.720p.Legendado.PT-BR","amp;tr":["udp%3A%2F%2Ftracker.openbittorrent.com%3A80","udp%3A%2F%2Fopen.demonii.com%3A1337","udp%3A%2F%2Ftracker.coppersurfer.tk%3A6969","udp%3A%2F%2Fexodus.desync.com%3A6969"],"infoHash":"e198c3731f51484be336a1682132b530242e763e","infoHashBuffer":{"type":"Buffer","data":[225,152,195,115,31,81,72,75,227,54,161,104,33,50,181,48,36,46,118,62]},"announce":[],"urlList":[]}}